<svg width="755" height="252" viewBox="0 0 755 252" fill="none" xmlns="http://www.w3.org/2000/svg">
<rect width="265" height="252" fill="url(#paint0_linear_3_16)"/>
<path d="M79 209V191.208H186V209H79ZM88.9243 132.62V114.828H174.935V132.62H88.9243ZM79.4563 61.9052V44H184.061V61.9052H79.4563Z" fill="white"/>
<path d="M396.946 65.0703V92.6697C395.86 93.9772 394.184 95.3962 391.917 96.9269C389.65 98.4256 386.728 99.7171 383.152 100.801C379.576 101.886 375.25 102.428 370.173 102.428C365.671 102.428 361.568 101.694 357.864 100.227C354.161 98.7285 350.968 96.5442 348.286 93.6742C345.636 90.8043 343.592 87.2965 342.155 83.151C340.718 78.9737 340 74.2063 340 68.8491V64.4963C340 59.1391 340.686 54.3717 342.059 50.1944C343.464 46.017 345.46 42.4933 348.046 39.6233C350.632 36.7534 353.714 34.569 357.29 33.0703C360.866 31.5715 364.841 30.8221 369.215 30.8221C375.282 30.8221 380.263 31.8107 384.158 33.7878C388.053 35.7329 391.023 38.4435 393.066 41.9193C395.142 45.3633 396.419 49.3174 396.898 53.7818H382.961C382.61 51.4221 381.939 49.3653 380.949 47.6114C379.959 45.8575 378.539 44.4863 376.687 43.4978C374.867 42.5092 372.504 42.015 369.598 42.015C367.204 42.015 365.064 42.5092 363.181 43.4978C361.329 44.4544 359.764 45.8735 358.487 47.7549C357.21 49.6363 356.236 51.9642 355.565 54.7385C354.895 57.5127 354.56 60.7335 354.56 64.4006V68.8491C354.56 72.4844 354.911 75.7051 355.613 78.5113C356.316 81.2856 357.354 83.6294 358.726 85.5427C360.131 87.4241 361.856 88.8431 363.899 89.7998C365.942 90.7564 368.321 91.2348 371.035 91.2348C373.302 91.2348 375.186 91.0434 376.687 90.6608C378.219 90.2781 379.449 89.8157 380.374 89.2736C381.332 88.6996 382.067 88.1575 382.578 87.6473V75.3065H369.455V65.0703H396.946Z" fill="#282746"/>
<path d="M435.644 89.7998V66.7444C435.644 65.0863 435.373 63.6672 434.83 62.4873C434.287 61.2756 433.441 60.3349 432.291 59.6652C431.174 58.9956 429.721 58.6607 427.933 58.6607C426.4 58.6607 425.075 58.9318 423.958 59.4739C422.84 59.9841 421.978 60.7335 421.372 61.722C420.765 62.6787 420.462 63.8107 420.462 65.1181H406.668C406.668 62.9178 407.179 60.8291 408.201 58.8521C409.223 56.875 410.707 55.1371 412.655 53.6383C414.603 52.1077 416.917 50.9118 419.6 50.0509C422.314 49.1899 425.347 48.7594 428.699 48.7594C432.722 48.7594 436.299 49.429 439.428 50.7683C442.557 52.1077 445.015 54.1166 446.803 56.7953C448.623 59.4739 449.533 62.8222 449.533 66.8401V88.9866C449.533 91.8247 449.709 94.1526 450.06 95.9702C450.411 97.756 450.922 99.3185 451.593 100.658V101.471H437.656C436.985 100.068 436.474 98.314 436.123 96.2094C435.804 94.0728 435.644 91.9363 435.644 89.7998ZM437.464 69.9492L437.56 77.746H429.849C428.029 77.746 426.448 77.9532 425.107 78.3678C423.766 78.7823 422.665 79.3723 421.803 80.1376C420.941 80.871 420.302 81.732 419.887 82.7206C419.504 83.7091 419.312 84.7933 419.312 85.9732C419.312 87.153 419.584 88.2213 420.126 89.178C420.669 90.1027 421.451 90.8362 422.473 91.3783C423.495 91.8885 424.692 92.1436 426.065 92.1436C428.141 92.1436 429.945 91.729 431.477 90.8999C433.01 90.0708 434.191 89.0504 435.021 87.8386C435.883 86.6269 436.33 85.4789 436.362 84.3947L440.002 90.2303C439.491 91.5377 438.789 92.893 437.895 94.2961C437.033 95.6991 435.931 97.0225 434.59 98.2662C433.249 99.4779 431.637 100.482 429.753 101.28C427.869 102.045 425.634 102.428 423.048 102.428C419.759 102.428 416.774 101.774 414.092 100.466C411.442 99.1272 409.334 97.2936 407.77 94.9657C406.237 92.606 405.471 89.9273 405.471 86.9298C405.471 84.2193 405.982 81.8117 407.003 79.7071C408.025 77.6025 409.526 75.8327 411.505 74.3977C413.517 72.9308 416.023 71.8307 419.025 71.0972C422.026 70.3319 425.506 69.9492 429.466 69.9492H437.464Z" fill="#282746"/>
<path d="M488.184 87.169C488.184 86.1805 487.896 85.2876 487.321 84.4904C486.747 83.6932 485.677 82.9597 484.113 82.2901C482.58 81.5885 480.361 80.9507 477.455 80.3768C474.837 79.8028 472.395 79.0853 470.128 78.2243C467.892 77.3314 465.945 76.2631 464.284 75.0195C462.656 73.7758 461.379 72.309 460.453 70.6189C459.527 68.8969 459.064 66.9358 459.064 64.7355C459.064 62.5671 459.527 60.5262 460.453 58.6129C461.411 56.6996 462.768 55.0095 464.524 53.5426C466.312 52.0439 468.483 50.88 471.038 50.0509C473.624 49.1899 476.529 48.7594 479.754 48.7594C484.256 48.7594 488.12 49.4769 491.344 50.9118C494.601 52.3468 497.092 54.3239 498.816 56.8431C500.572 59.3304 501.45 62.1685 501.45 65.3573H487.657C487.657 64.018 487.369 62.8222 486.795 61.7699C486.252 60.6856 485.39 59.8406 484.208 59.2347C483.059 58.597 481.558 58.2781 479.706 58.2781C478.174 58.2781 476.849 58.5491 475.731 59.0912C474.614 59.6014 473.751 60.303 473.145 61.1959C472.57 62.0568 472.283 63.0135 472.283 64.0658C472.283 64.863 472.442 65.5805 472.762 66.2183C473.113 66.8242 473.672 67.3822 474.438 67.8924C475.204 68.4026 476.194 68.881 477.407 69.3274C478.653 69.742 480.185 70.1246 482.005 70.4754C485.741 71.2407 489.078 72.2452 492.015 73.4889C494.952 74.7006 497.283 76.3588 499.008 78.4634C500.732 80.5362 501.594 83.2627 501.594 86.6428C501.594 88.9388 501.083 91.0434 500.061 92.9567C499.039 94.87 497.571 96.5442 495.655 97.9792C493.739 99.3823 491.44 100.482 488.758 101.28C486.108 102.045 483.123 102.428 479.802 102.428C474.981 102.428 470.894 101.567 467.541 99.8446C464.221 98.1227 461.698 95.9383 459.974 93.2916C458.282 90.6129 457.436 87.8705 457.436 85.0644H470.511C470.575 86.9458 471.053 88.4605 471.947 89.6085C472.873 90.7564 474.039 91.5855 475.444 92.0958C476.881 92.606 478.429 92.8611 480.089 92.8611C481.877 92.8611 483.362 92.6219 484.544 92.1436C485.725 91.6334 486.619 90.9637 487.226 90.1346C487.864 89.2736 488.184 88.2851 488.184 87.169Z" fill="#282746"/>
<path d="M525.11 28V101.471H511.268V28H525.11Z" fill="#282746"/>
<path d="M560.359 102.428C556.336 102.428 552.728 101.79 549.535 100.514C546.343 99.2069 543.629 97.4052 541.394 95.1092C539.19 92.8132 537.498 90.1506 536.317 87.1212C535.135 84.0599 534.545 80.8072 534.545 77.3633V75.45C534.545 71.5277 535.103 67.9403 536.221 64.6876C537.339 61.435 538.935 58.6129 541.01 56.2213C543.118 53.8296 545.672 51.996 548.673 50.7205C551.675 49.4131 555.059 48.7594 558.827 48.7594C562.499 48.7594 565.756 49.3653 568.597 50.577C571.439 51.7888 573.818 53.5107 575.733 55.7429C577.681 57.9751 579.15 60.6538 580.14 63.7788C581.129 66.872 581.624 70.316 581.624 74.1107V79.8506H540.436V70.6667H568.07V69.6144C568.07 67.7011 567.719 65.9951 567.017 64.4963C566.346 62.9657 565.324 61.7539 563.952 60.861C562.579 59.9682 560.822 59.5217 558.683 59.5217C556.863 59.5217 555.299 59.9203 553.99 60.7175C552.681 61.5147 551.611 62.6308 550.781 64.0658C549.983 65.5008 549.376 67.1909 548.961 69.1361C548.578 71.0494 548.386 73.154 548.386 75.45V77.3633C548.386 79.436 548.673 81.3494 549.248 83.1032C549.855 84.8571 550.701 86.3718 551.787 87.6473C552.904 88.9229 554.245 89.9114 555.81 90.6129C557.406 91.3145 559.21 91.6653 561.222 91.6653C563.712 91.6653 566.027 91.1869 568.166 90.2303C570.337 89.2417 572.205 87.7589 573.77 85.7818L580.475 93.0524C579.389 94.6149 577.905 96.1137 576.021 97.5487C574.169 98.9837 571.934 100.164 569.316 101.088C566.697 101.981 563.712 102.428 560.359 102.428Z" fill="#282746"/>
<path d="M617.497 87.169C617.497 86.1805 617.209 85.2876 616.635 84.4904C616.06 83.6932 614.99 82.9597 613.426 82.2901C611.893 81.5885 609.674 80.9507 606.769 80.3768C604.15 79.8028 601.708 79.0853 599.441 78.2243C597.206 77.3314 595.258 76.2631 593.598 75.0195C591.969 73.7758 590.692 72.309 589.766 70.6189C588.84 68.8969 588.377 66.9358 588.377 64.7355C588.377 62.5671 588.84 60.5262 589.766 58.6129C590.724 56.6996 592.081 55.0095 593.837 53.5426C595.625 52.0439 597.797 50.88 600.351 50.0509C602.937 49.1899 605.843 48.7594 609.068 48.7594C613.57 48.7594 617.433 49.4769 620.658 50.9118C623.915 52.3468 626.405 54.3239 628.129 56.8431C629.885 59.3304 630.763 62.1685 630.763 65.3573H616.97C616.97 64.018 616.683 62.8222 616.108 61.7699C615.565 60.6856 614.703 59.8406 613.522 59.2347C612.372 58.597 610.872 58.2781 609.02 58.2781C607.487 58.2781 606.162 58.5491 605.044 59.0912C603.927 59.6014 603.065 60.303 602.458 61.1959C601.883 62.0568 601.596 63.0135 601.596 64.0658C601.596 64.863 601.756 65.5805 602.075 66.2183C602.426 66.8242 602.985 67.3822 603.751 67.8924C604.518 68.4026 605.507 68.881 606.721 69.3274C607.966 69.742 609.499 70.1246 611.319 70.4754C615.054 71.2407 618.391 72.2452 621.328 73.4889C624.266 74.7006 626.597 76.3588 628.321 78.4634C630.045 80.5362 630.907 83.2627 630.907 86.6428C630.907 88.9388 630.396 91.0434 629.375 92.9567C628.353 94.87 626.884 96.5442 624.968 97.9792C623.053 99.3823 620.754 100.482 618.072 101.28C615.421 102.045 612.436 102.428 609.115 102.428C604.294 102.428 600.207 101.567 596.855 99.8446C593.534 98.1227 591.012 95.9383 589.287 93.2916C587.595 90.6129 586.749 87.8705 586.749 85.0644H599.824C599.888 86.9458 600.367 88.4605 601.261 89.6085C602.187 90.7564 603.352 91.5855 604.757 92.0958C606.194 92.606 607.742 92.8611 609.403 92.8611C611.191 92.8611 612.676 92.6219 613.857 92.1436C615.038 91.6334 615.932 90.9637 616.539 90.1346C617.178 89.2736 617.497 88.2851 617.497 87.169Z" fill="#282746"/>
<path d="M667.881 87.169C667.881 86.1805 667.594 85.2876 667.019 84.4904C666.444 83.6932 665.375 82.9597 663.81 82.2901C662.278 81.5885 660.058 80.9507 657.153 80.3768C654.535 79.8028 652.092 79.0853 649.825 78.2243C647.59 77.3314 645.642 76.2631 643.982 75.0195C642.354 73.7758 641.077 72.309 640.151 70.6189C639.225 68.8969 638.762 66.9358 638.762 64.7355C638.762 62.5671 639.225 60.5262 640.151 58.6129C641.108 56.6996 642.465 55.0095 644.222 53.5426C646.01 52.0439 648.181 50.88 650.735 50.0509C653.321 49.1899 656.227 48.7594 659.452 48.7594C663.954 48.7594 667.817 49.4769 671.042 50.9118C674.299 52.3468 676.789 54.3239 678.514 56.8431C680.27 59.3304 681.148 62.1685 681.148 65.3573H667.354C667.354 64.018 667.067 62.8222 666.492 61.7699C665.949 60.6856 665.087 59.8406 663.906 59.2347C662.756 58.597 661.256 58.2781 659.404 58.2781C657.871 58.2781 656.546 58.5491 655.429 59.0912C654.311 59.6014 653.449 60.303 652.842 61.1959C652.268 62.0568 651.98 63.0135 651.98 64.0658C651.98 64.863 652.14 65.5805 652.459 66.2183C652.811 66.8242 653.369 67.3822 654.136 67.8924C654.902 68.4026 655.892 68.881 657.105 69.3274C658.35 69.742 659.883 70.1246 661.703 70.4754C665.439 71.2407 668.775 72.2452 671.713 73.4889C674.65 74.7006 676.981 76.3588 678.705 78.4634C680.429 80.5362 681.291 83.2627 681.291 86.6428C681.291 88.9388 680.781 91.0434 679.759 92.9567C678.737 94.87 677.268 96.5442 675.353 97.9792C673.437 99.3823 671.138 100.482 668.456 101.28C665.806 102.045 662.82 102.428 659.5 102.428C654.678 102.428 650.591 101.567 647.239 99.8446C643.918 98.1227 641.396 95.9383 639.672 93.2916C637.979 90.6129 637.133 87.8705 637.133 85.0644H650.208C650.272 86.9458 650.751 88.4605 651.645 89.6085C652.571 90.7564 653.736 91.5855 655.141 92.0958C656.578 92.606 658.127 92.8611 659.787 92.8611C661.575 92.8611 663.06 92.6219 664.241 92.1436C665.423 91.6334 666.317 90.9637 666.923 90.1346C667.562 89.2736 667.881 88.2851 667.881 87.169Z" fill="#282746"/>
<path d="M362.414 216.575H347.855L347.95 209.066H362.414C367.395 209.066 371.546 208.029 374.867 205.957C378.187 203.852 380.678 200.918 382.338 197.155C384.03 193.361 384.877 188.928 384.877 183.858V179.601C384.877 175.615 384.398 172.075 383.44 168.982C382.482 165.857 381.077 163.226 379.225 161.09C377.373 158.921 375.106 157.279 372.424 156.163C369.774 155.047 366.725 154.489 363.276 154.489H347.567V146.931H363.276C367.842 146.931 372.009 147.696 375.777 149.227C379.544 150.726 382.785 152.91 385.499 155.78C388.245 158.618 390.352 162.062 391.821 166.112C393.29 170.13 394.024 174.658 394.024 179.696V183.858C394.024 188.896 393.29 193.44 391.821 197.49C390.352 201.508 388.229 204.936 385.451 207.774C382.705 210.612 379.385 212.797 375.489 214.327C371.626 215.826 367.268 216.575 362.414 216.575ZM352.788 146.931V216.575H343.544V146.931H352.788Z" fill="#282746"/>
<path d="M428.077 217.532C424.469 217.532 421.196 216.926 418.259 215.714C415.353 214.471 412.847 212.733 410.739 210.501C408.664 208.269 407.067 205.622 405.95 202.56C404.832 199.499 404.274 196.151 404.274 192.516V190.507C404.274 186.297 404.896 182.55 406.141 179.266C407.387 175.95 409.079 173.143 411.218 170.847C413.357 168.551 415.784 166.814 418.498 165.634C421.212 164.454 424.022 163.864 426.927 163.864C430.631 163.864 433.824 164.502 436.506 165.777C439.22 167.053 441.439 168.838 443.163 171.134C444.887 173.399 446.165 176.077 446.995 179.17C447.825 182.232 448.24 185.58 448.24 189.215V193.185H409.542V185.963H439.38V185.293C439.252 182.997 438.773 180.765 437.943 178.596C437.145 176.428 435.867 174.642 434.111 173.239C432.355 171.836 429.961 171.134 426.927 171.134C424.916 171.134 423.064 171.565 421.372 172.426C419.679 173.255 418.227 174.499 417.013 176.157C415.8 177.815 414.858 179.84 414.188 182.232C413.517 184.623 413.182 187.382 413.182 190.507V192.516C413.182 194.971 413.517 197.283 414.188 199.451C414.89 201.588 415.896 203.469 417.205 205.096C418.546 206.722 420.158 207.997 422.042 208.922C423.958 209.847 426.129 210.309 428.556 210.309C431.685 210.309 434.335 209.672 436.506 208.396C438.677 207.121 440.577 205.414 442.205 203.278L447.57 207.535C446.452 209.225 445.031 210.836 443.307 212.366C441.583 213.897 439.46 215.14 436.937 216.097C434.447 217.054 431.493 217.532 428.077 217.532Z" fill="#282746"/>
<path d="M468.212 143.104V216.575H459.304V143.104H468.212Z" fill="#282746"/>
<path d="M503.941 217.532C500.333 217.532 497.06 216.926 494.122 215.714C491.217 214.471 488.71 212.733 486.603 210.501C484.528 208.269 482.931 205.622 481.814 202.56C480.696 199.499 480.137 196.151 480.137 192.516V190.507C480.137 186.297 480.76 182.55 482.005 179.266C483.25 175.95 484.943 173.143 487.082 170.847C489.221 168.551 491.648 166.814 494.362 165.634C497.076 164.454 499.886 163.864 502.791 163.864C506.495 163.864 509.688 164.502 512.37 165.777C515.084 167.053 517.303 168.838 519.027 171.134C520.751 173.399 522.028 176.077 522.859 179.17C523.689 182.232 524.104 185.58 524.104 189.215V193.185H485.406V185.963H515.244V185.293C515.116 182.997 514.637 180.765 513.807 178.596C513.008 176.428 511.731 174.642 509.975 173.239C508.219 171.836 505.824 171.134 502.791 171.134C500.78 171.134 498.928 171.565 497.235 172.426C495.543 173.255 494.09 174.499 492.877 176.157C491.664 177.815 490.722 179.84 490.051 182.232C489.381 184.623 489.046 187.382 489.046 190.507V192.516C489.046 194.971 489.381 197.283 490.051 199.451C490.754 201.588 491.76 203.469 493.069 205.096C494.41 206.722 496.022 207.997 497.906 208.922C499.822 209.847 501.993 210.309 504.42 210.309C507.549 210.309 510.199 209.672 512.37 208.396C514.541 207.121 516.441 205.414 518.069 203.278L523.433 207.535C522.316 209.225 520.895 210.836 519.171 212.366C517.447 213.897 515.323 215.14 512.801 216.097C510.31 217.054 507.357 217.532 503.941 217.532Z" fill="#282746"/>
<path d="M568.023 164.821H576.069V215.475C576.069 220.035 575.143 223.926 573.291 227.146C571.439 230.367 568.853 232.807 565.532 234.465C562.243 236.155 558.444 237 554.133 237C552.345 237 550.238 236.713 547.811 236.139C545.417 235.597 543.054 234.656 540.723 233.317C538.424 232.009 536.492 230.24 534.928 228.007L539.574 222.746C541.745 225.361 544.012 227.178 546.374 228.199C548.769 229.219 551.132 229.729 553.463 229.729C556.273 229.729 558.699 229.203 560.743 228.151C562.786 227.099 564.367 225.536 565.484 223.463C566.634 221.422 567.208 218.903 567.208 215.906V176.205L568.023 164.821ZM532.342 191.272V190.267C532.342 186.313 532.805 182.726 533.731 179.505C534.688 176.253 536.045 173.462 537.802 171.134C539.59 168.807 541.745 167.021 544.267 165.777C546.79 164.502 549.631 163.864 552.792 163.864C556.049 163.864 558.891 164.438 561.317 165.586C563.776 166.702 565.851 168.344 567.544 170.513C569.268 172.649 570.625 175.232 571.615 178.261C572.604 181.291 573.291 184.719 573.674 188.546V192.946C573.323 196.741 572.636 200.153 571.615 203.182C570.625 206.212 569.268 208.795 567.544 210.931C565.851 213.068 563.776 214.71 561.317 215.858C558.859 216.974 555.985 217.532 552.696 217.532C549.599 217.532 546.79 216.878 544.267 215.571C541.777 214.264 539.637 212.43 537.849 210.07C536.061 207.71 534.688 204.936 533.731 201.747C532.805 198.527 532.342 195.035 532.342 191.272ZM541.202 190.267V191.272C541.202 193.855 541.457 196.278 541.968 198.543C542.511 200.807 543.325 202.8 544.411 204.522C545.528 206.244 546.949 207.599 548.673 208.587C550.398 209.544 552.457 210.022 554.852 210.022C557.789 210.022 560.216 209.401 562.132 208.157C564.047 206.913 565.564 205.271 566.681 203.23C567.831 201.189 568.725 198.973 569.364 196.581V185.054C569.012 183.3 568.47 181.61 567.735 179.983C567.033 178.325 566.107 176.858 564.957 175.583C563.84 174.275 562.451 173.239 560.791 172.474C559.13 171.708 557.183 171.326 554.947 171.326C552.521 171.326 550.43 171.836 548.673 172.856C546.949 173.845 545.528 175.216 544.411 176.97C543.325 178.692 542.511 180.701 541.968 182.997C541.457 185.261 541.202 187.685 541.202 190.267Z" fill="#282746"/>
<path d="M620.083 207.726V181.084C620.083 179.043 619.668 177.273 618.838 175.774C618.04 174.244 616.826 173.064 615.198 172.235C613.57 171.405 611.558 170.991 609.163 170.991C606.928 170.991 604.965 171.374 603.272 172.139C601.612 172.904 600.303 173.909 599.345 175.152C598.419 176.396 597.956 177.735 597.956 179.17H589.096C589.096 177.321 589.575 175.487 590.533 173.67C591.49 171.852 592.863 170.21 594.651 168.743C596.471 167.244 598.643 166.064 601.165 165.203C603.719 164.31 606.561 163.864 609.69 163.864C613.458 163.864 616.778 164.502 619.652 165.777C622.558 167.053 624.825 168.982 626.453 171.565C628.113 174.116 628.943 177.321 628.943 181.179V205.287C628.943 207.009 629.087 208.843 629.375 210.788C629.694 212.733 630.157 214.407 630.763 215.81V216.575H621.52C621.073 215.555 620.722 214.2 620.466 212.51C620.211 210.788 620.083 209.193 620.083 207.726ZM621.616 185.197L621.711 191.415H612.755C610.233 191.415 607.982 191.623 606.002 192.037C604.023 192.42 602.362 193.01 601.021 193.807C599.68 194.604 598.659 195.609 597.956 196.821C597.254 198 596.902 199.388 596.902 200.982C596.902 202.608 597.27 204.091 598.004 205.43C598.738 206.77 599.84 207.838 601.309 208.635C602.809 209.401 604.645 209.783 606.817 209.783C609.53 209.783 611.925 209.209 614.001 208.061C616.076 206.913 617.72 205.51 618.934 203.852C620.179 202.194 620.849 200.583 620.945 199.021L624.729 203.278C624.505 204.617 623.899 206.1 622.909 207.726C621.919 209.353 620.594 210.915 618.934 212.414C617.305 213.881 615.358 215.109 613.091 216.097C610.856 217.054 608.333 217.532 605.523 217.532C602.011 217.532 598.93 216.847 596.28 215.475C593.662 214.104 591.618 212.271 590.149 209.975C588.713 207.647 587.994 205.048 587.994 202.178C587.994 199.404 588.537 196.964 589.623 194.859C590.708 192.723 592.273 190.953 594.316 189.55C596.36 188.115 598.818 187.031 601.692 186.297C604.565 185.564 607.774 185.197 611.319 185.197H621.616Z" fill="#282746"/>
<path d="M664.576 164.821V171.613H636.559V164.821H664.576ZM646.042 152.241H654.902V203.756C654.902 205.51 655.173 206.834 655.716 207.726C656.259 208.619 656.961 209.209 657.823 209.496C658.686 209.783 659.611 209.927 660.601 209.927C661.336 209.927 662.102 209.863 662.9 209.735C663.73 209.576 664.353 209.448 664.768 209.353L664.816 216.575C664.113 216.799 663.188 217.006 662.038 217.197C660.921 217.42 659.564 217.532 657.967 217.532C655.796 217.532 653.8 217.102 651.98 216.241C650.16 215.38 648.708 213.945 647.622 211.936C646.568 209.895 646.042 207.152 646.042 203.708V152.241Z" fill="#282746"/>
<path d="M671.665 191.272V190.172C671.665 186.441 672.208 182.981 673.293 179.792C674.379 176.571 675.943 173.781 677.987 171.421C680.03 169.03 682.505 167.18 685.41 165.873C688.316 164.534 691.573 163.864 695.181 163.864C698.821 163.864 702.093 164.534 704.999 165.873C707.936 167.18 710.427 169.03 712.47 171.421C714.546 173.781 716.126 176.571 717.212 179.792C718.297 182.981 718.84 186.441 718.84 190.172V191.272C718.84 195.003 718.297 198.463 717.212 201.652C716.126 204.841 714.546 207.631 712.47 210.022C710.427 212.382 707.952 214.232 705.047 215.571C702.173 216.878 698.916 217.532 695.276 217.532C691.636 217.532 688.364 216.878 685.458 215.571C682.553 214.232 680.062 212.382 677.987 210.022C675.943 207.631 674.379 204.841 673.293 201.652C672.208 198.463 671.665 195.003 671.665 191.272ZM680.525 190.172V191.272C680.525 193.855 680.828 196.294 681.435 198.59C682.042 200.854 682.952 202.863 684.165 204.617C685.41 206.371 686.959 207.758 688.811 208.779C690.663 209.767 692.818 210.262 695.276 210.262C697.703 210.262 699.826 209.767 701.646 208.779C703.498 207.758 705.031 206.371 706.244 204.617C707.457 202.863 708.367 200.854 708.974 198.59C709.613 196.294 709.932 193.855 709.932 191.272V190.172C709.932 187.621 709.613 185.213 708.974 182.949C708.367 180.653 707.441 178.628 706.196 176.874C704.983 175.089 703.45 173.686 701.598 172.665C699.778 171.645 697.639 171.134 695.181 171.134C692.754 171.134 690.615 171.645 688.763 172.665C686.943 173.686 685.41 175.089 684.165 176.874C682.952 178.628 682.042 180.653 681.435 182.949C680.828 185.213 680.525 187.621 680.525 190.172Z" fill="#282746"/>
<path d="M738.812 172.952V216.575H729.952V164.821H738.572L738.812 172.952ZM755 164.534L754.952 172.761C754.218 172.601 753.515 172.506 752.845 172.474C752.206 172.41 751.472 172.378 750.642 172.378C748.598 172.378 746.794 172.697 745.23 173.335C743.665 173.973 742.34 174.865 741.254 176.013C740.169 177.161 739.307 178.533 738.668 180.127C738.062 181.69 737.662 183.411 737.471 185.293L734.98 186.728C734.98 183.603 735.284 180.669 735.89 177.927C736.529 175.184 737.503 172.761 738.812 170.656C740.121 168.52 741.781 166.861 743.793 165.682C745.836 164.47 748.263 163.864 751.073 163.864C751.711 163.864 752.446 163.944 753.276 164.103C754.106 164.231 754.681 164.374 755 164.534Z" fill="#282746"/>
<defs>
<linearGradient id="paint0_linear_3_16" x1="30" y1="28.5" x2="328.5" y2="317.5" gradientUnits="userSpaceOnUse">
<stop stop-color="#44BCF0"/>
<stop offset="0.427083" stop-color="#7298F8"/>
<stop offset="0.994792" stop-color="#A099FF"/>
</linearGradient>
</defs>
</svg>
